<?xml version="1.0" encoding="utf-8"?>
<!-- Generator: Adobe Illustrator 21.0.2, SVG Export Plug-In . SVG Version: 6.00 Build 0)  -->
<svg version="1.1" id="Layer_1" xmlns="http://www.w3.org/2000/svg" xmlns:xlink="http://www.w3.org/1999/xlink" x="0px" y="0px"
	 viewBox="0 0 100 100" style="enable-background:new 0 0 100 100;" xml:space="preserve">
<path d="M19,35c0-1.1,0.9-2,2-2h36c1.1,0,2,0.9,2,2c0,1.1-0.9,2-2,2H21C19.9,37,19,36.1,19,35z M21,47h36c1.1,0,2-0.9,2-2
	c0-1.1-0.9-2-2-2H21c-1.1,0-2,0.9-2,2C19,46.1,19.9,47,21,47z M21,57h24c1.1,0,2-0.9,2-2c0-1.1-0.9-2-2-2H21c-1.1,0-2,0.9-2,2
	C19,56.1,19.9,57,21,57z M37,63H21c-1.1,0-2,0.9-2,2c0,1.1,0.9,2,2,2h16c1.1,0,2-0.9,2-2C39,63.9,38.1,63,37,63z M37,73H21
	c-1.1,0-2,0.9-2,2c0,1.1,0.9,2,2,2h16c1.1,0,2-0.9,2-2C39,73.9,38.1,73,37,73z M92.4,42.4l-8,8L69,65.8V93c0,1.1-0.9,2-2,2H9
	c-1.1,0-2-0.9-2-2V7c0-1.1,0.9-2,2-2h42c0.1,0,0.3,0,0.4,0c0.1,0,0.2,0,0.2,0.1c0,0,0.1,0,0.1,0c0.1,0,0.2,0.1,0.3,0.1
	c0,0,0.1,0,0.1,0c0.1,0.1,0.2,0.2,0.3,0.2l16,16c0.1,0.1,0.2,0.2,0.2,0.3c0,0,0,0,0.1,0.1c0,0.1,0.1,0.2,0.1,0.3c0,0,0,0.1,0,0.1
	c0,0.1,0.1,0.2,0.1,0.2c0,0.1,0,0.3,0,0.4v17.2l2.6-2.6l8-8c0.8-0.8,2-0.8,2.8,0l10,10C93.2,40.4,93.2,41.6,92.4,42.4z M53,21h9.2
	L53,11.8V21z M65,69.8l-6.6,6.6C58,76.8,57.5,77,57,77H47c-1.1,0-2-0.9-2-2V65c0-0.5,0.2-1,0.6-1.4L65,44.2V25H51c-1.1,0-2-0.9-2-2
	V9H11v82h54V69.8z M80.2,49L73,41.8l-24,24V73h7.2L80.2,49z M88.2,41L81,33.8L75.8,39l7.2,7.2L88.2,41z"/>
</svg>
